<svg width="22" height="17" viewBox="0 0 22 17" fill="none" xmlns="http://www.w3.org/2000/svg">
<path d="M3 16H1C1 12.6863 3.68629 10 7 10C10.3137 10 13 12.6863 13 16H11C11 13.7909 9.20914 12 7 12C4.79086 12 3 13.7909 3 16ZM18 13H16V10H13V8H16V5H18V8H21V10H18V13ZM7 9C4.79086 9 3 7.20914 3 5C3 2.79086 4.79086 1 7 1C9.20914 1 11 2.79086 11 5C10.9972 7.208 9.208 8.99725 7 9ZM7 3C5.9074 3.00111 5.01789 3.87885 5.00223 4.97134C4.98658 6.06383 5.85056 6.9667 6.94269 6.99912C8.03481 7.03153 8.95083 6.1815 9 5.09V5.49V5C9 3.89543 8.10457 3 7 3Z" stroke="white"/>
</svg>
