<svg width="164" height="62" viewBox="0 0 164 62" fill="none" xmlns="http://www.w3.org/2000/svg">
<rect width="164" height="62" rx="15" fill="url(#paint0_linear)"/>
<path d="M131.917 43.125H119.167C117.602 43.125 116.333 41.9684 116.333 40.5417V35.375H119.167V40.5417H131.917V22.4583H119.167V27.625H116.333V22.4583C116.333 21.0316 117.602 19.875 119.167 19.875H131.917C133.481 19.875 134.75 21.0316 134.75 22.4583V40.5417C134.75 41.9684 133.481 43.125 131.917 43.125ZM122 36.6667V32.7917H109.25V30.2083H122V26.3333L129.083 31.5L122 36.6667Z" fill="#2E3A59"/>
<path d="M31.0248 37.3135H38.4369V39H28.9516V23.3594H31.0248V37.3135ZM54.3117 31.6846C54.3117 33.2171 54.0539 34.5563 53.5383 35.7021C53.0227 36.8408 52.2922 37.7109 51.3469 38.3125C50.4016 38.9141 49.2987 39.2148 48.0383 39.2148C46.8065 39.2148 45.7144 38.9141 44.7619 38.3125C43.8094 37.7038 43.0682 36.8408 42.5383 35.7236C42.0155 34.5993 41.7469 33.2995 41.7326 31.8242V30.6963C41.7326 29.1924 41.994 27.8639 42.5168 26.7109C43.0396 25.5579 43.7772 24.6771 44.7297 24.0684C45.6893 23.4525 46.785 23.1445 48.0168 23.1445C49.2701 23.1445 50.3729 23.4489 51.3254 24.0576C52.285 24.6592 53.0227 25.5365 53.5383 26.6895C54.0539 27.8353 54.3117 29.1709 54.3117 30.6963V31.6846ZM52.26 30.6748C52.26 28.82 51.8876 27.3984 51.1428 26.4102C50.398 25.4147 49.356 24.917 48.0168 24.917C46.7134 24.917 45.6857 25.4147 44.9338 26.4102C44.189 27.3984 43.8059 28.7734 43.7844 30.5352V31.6846C43.7844 33.4821 44.1603 34.8965 44.9123 35.9277C45.6714 36.9518 46.7134 37.4639 48.0383 37.4639C49.3703 37.4639 50.4016 36.9805 51.132 36.0137C51.8625 35.0397 52.2385 33.6468 52.26 31.835V30.6748ZM71.1533 36.9482C70.6234 37.7074 69.8822 38.2767 68.9297 38.6562C67.9844 39.0286 66.8815 39.2148 65.6211 39.2148C64.3464 39.2148 63.2148 38.9176 62.2266 38.3232C61.2383 37.7217 60.472 36.8695 59.9277 35.7666C59.3906 34.6637 59.1149 33.3854 59.1006 31.9316V30.5674C59.1006 28.2113 59.6484 26.3851 60.7441 25.0889C61.847 23.7926 63.3939 23.1445 65.3848 23.1445C67.0176 23.1445 68.3317 23.5635 69.3271 24.4014C70.3226 25.2321 70.9313 26.4137 71.1533 27.9463H69.0908C68.7041 25.8766 67.4723 24.8418 65.3955 24.8418C64.0133 24.8418 62.9642 25.3288 62.248 26.3027C61.5391 27.2695 61.181 28.6732 61.1738 30.5137V31.792C61.1738 33.5465 61.5749 34.943 62.377 35.9814C63.179 37.0127 64.264 37.5283 65.6318 37.5283C66.4053 37.5283 67.082 37.4424 67.6621 37.2705C68.2422 37.0986 68.722 36.8086 69.1016 36.4004V32.8877H65.4814V31.2119H71.1533V36.9482ZM79.0145 39H76.952V23.3594H79.0145V39ZM97.0162 39H94.943L87.0689 26.9473V39H84.9957V23.3594H87.0689L94.9645 35.4658V23.3594H97.0162V39Z" fill="black"/>
<defs>
<linearGradient id="paint0_linear" x1="-75" y1="-16" x2="249" y2="74" gradientUnits="userSpaceOnUse">
<stop stop-color="#0075FF"/>
<stop offset="1" stop-color="#09ED12" stop-opacity="0"/>
</linearGradient>
</defs>
</svg>
